<svg id="visual" viewBox="0 0 960 540" width="960" height="540" xmlns="http://www.w3.org/2000/svg" xmlns:xlink="http://www.w3.org/1999/xlink" version="1.1"><path d="M0 82L14.5 79.3C29 76.7 58 71.3 87.2 65C116.3 58.7 145.7 51.3 174.8 46.8C204 42.3 233 40.7 262 48.8C291 57 320 75 349 80.3C378 85.7 407 78.3 436.2 78.3C465.3 78.3 494.7 85.7 523.8 80.3C553 75 582 57 611 60.5C640 64 669 89 698 98C727 107 756 100 785.2 87.5C814.3 75 843.7 57 872.8 56C902 55 931 71 945.5 79L960 87L960 0L945.5 0C931 0 902 0 872.8 0C843.7 0 814.3 0 785.2 0C756 0 727 0 698 0C669 0 640 0 611 0C582 0 553 0 523.8 0C494.7 0 465.3 0 436.2 0C407 0 378 0 349 0C320 0 291 0 262 0C233 0 204 0 174.8 0C145.7 0 116.3 0 87.2 0C58 0 29 0 14.5 0L0 0Z" fill="#992925"></path><path d="M0 168L14.5 160C29 152 58 136 87.2 129.8C116.3 123.7 145.7 127.3 174.8 119.2C204 111 233 91 262 91C291 91 320 111 349 119.2C378 127.3 407 123.7 436.2 127.2C465.3 130.7 494.7 141.3 523.8 142.2C553 143 582 134 611 133.2C640 132.3 669 139.7 698 146C727 152.3 756 157.7 785.2 151.3C814.3 145 843.7 127 872.8 127C902 127 931 145 945.5 154L960 163L960 85L945.5 77C931 69 902 53 872.8 54C843.7 55 814.3 73 785.2 85.5C756 98 727 105 698 96C669 87 640 62 611 58.5C582 55 553 73 523.8 78.3C494.7 83.7 465.3 76.3 436.2 76.3C407 76.3 378 83.7 349 78.3C320 73 291 55 262 46.8C233 38.7 204 40.3 174.8 44.8C145.7 49.3 116.3 56.7 87.2 63C58 69.3 29 74.7 14.5 77.3L0 80Z" fill="#831917"></path><path d="M0 384L14.5 356.2C29 328.3 58 272.7 87.2 251.2C116.3 229.7 145.7 242.3 174.8 232.5C204 222.7 233 190.3 262 210.2C291 230 320 302 349 323.5C378 345 407 316 436.2 290.7C465.3 265.3 494.7 243.7 523.8 240.2C553 236.7 582 251.3 611 255.8C640 260.3 669 254.7 698 254.7C727 254.7 756 260.3 785.2 280.2C814.3 300 843.7 334 872.8 332.2C902 330.3 931 292.7 945.5 273.8L960 255L960 161L945.5 152C931 143 902 125 872.8 125C843.7 125 814.3 143 785.2 149.3C756 155.7 727 150.3 698 144C669 137.7 640 130.3 611 131.2C582 132 553 141 523.8 140.2C494.7 139.3 465.3 128.7 436.2 125.2C407 121.7 378 125.3 349 117.2C320 109 291 89 262 89C233 89 204 109 174.8 117.2C145.7 125.3 116.3 121.7 87.2 127.8C58 134 29 150 14.5 158L0 166Z" fill="#6e0707"></path><path d="M0 433L14.5 415C29 397 58 361 87.2 341.2C116.3 321.3 145.7 317.7 174.8 309.5C204 301.3 233 288.7 262 310.3C291 332 320 388 349 406C378 424 407 404 436.2 387.8C465.3 371.7 494.7 359.3 523.8 352.2C553 345 582 343 611 346.5C640 350 669 359 698 354.5C727 350 756 332 785.2 341C814.3 350 843.7 386 872.8 394.2C902 402.3 931 382.7 945.5 372.8L960 363L960 253L945.5 271.8C931 290.7 902 328.3 872.8 330.2C843.7 332 814.3 298 785.2 278.2C756 258.3 727 252.7 698 252.7C669 252.7 640 258.3 611 253.8C582 249.3 553 234.7 523.8 238.2C494.7 241.7 465.3 263.3 436.2 288.7C407 314 378 343 349 321.5C320 300 291 228 262 208.2C233 188.3 204 220.7 174.8 230.5C145.7 240.3 116.3 227.7 87.2 249.2C58 270.7 29 326.3 14.5 354.2L0 382Z" fill="#60080a"></path><path d="M0 541L14.5 541C29 541 58 541 87.2 541C116.3 541 145.7 541 174.8 541C204 541 233 541 262 541C291 541 320 541 349 541C378 541 407 541 436.2 541C465.3 541 494.7 541 523.8 541C553 541 582 541 611 541C640 541 669 541 698 541C727 541 756 541 785.2 541C814.3 541 843.7 541 872.8 541C902 541 931 541 945.5 541L960 541L960 361L945.5 370.8C931 380.7 902 400.3 872.8 392.2C843.7 384 814.3 348 785.2 339C756 330 727 348 698 352.5C669 357 640 348 611 344.5C582 341 553 343 523.8 350.2C494.7 357.3 465.3 369.7 436.2 385.8C407 402 378 422 349 404C320 386 291 330 262 308.3C233 286.7 204 299.3 174.8 307.5C145.7 315.7 116.3 319.3 87.2 339.2C58 359 29 395 14.5 413L0 431Z" fill="#52090c"></path></svg>