<svg id="visual" viewBox="0 0 960 540" width="960" height="540" xmlns="http://www.w3.org/2000/svg" xmlns:xlink="http://www.w3.org/1999/xlink" version="1.1"><path d="M0 82L14.5 80.2C29 78.3 58 74.7 87.2 73.8C116.3 73 145.7 75 174.8 73.2C204 71.3 233 65.7 262 62.8C291 60 320 60 349 60C378 60 407 60 436.2 66.3C465.3 72.7 494.7 85.3 523.8 87.2C553 89 582 80 611 79.2C640 78.3 669 85.7 698 89.3C727 93 756 93 785.2 87.5C814.3 82 843.7 71 872.8 71C902 71 931 82 945.5 87.5L960 93L960 0L945.5 0C931 0 902 0 872.8 0C843.7 0 814.3 0 785.2 0C756 0 727 0 698 0C669 0 640 0 611 0C582 0 553 0 523.8 0C494.7 0 465.3 0 436.2 0C407 0 378 0 349 0C320 0 291 0 262 0C233 0 204 0 174.8 0C145.7 0 116.3 0 87.2 0C58 0 29 0 14.5 0L0 0Z" fill="#992925"></path><path d="M0 179L14.5 171.8C29 164.7 58 150.3 87.2 141.3C116.3 132.3 145.7 128.7 174.8 126.8C204 125 233 125 262 126.8C291 128.7 320 132.3 349 136.8C378 141.3 407 146.7 436.2 162.8C465.3 179 494.7 206 523.8 211.5C553 217 582 201 611 195.7C640 190.3 669 195.7 698 191.2C727 186.7 756 172.3 785.2 159.7C814.3 147 843.7 136 872.8 144C902 152 931 179 945.5 192.5L960 206L960 91L945.5 85.5C931 80 902 69 872.8 69C843.7 69 814.3 80 785.2 85.5C756 91 727 91 698 87.3C669 83.7 640 76.3 611 77.2C582 78 553 87 523.8 85.2C494.7 83.3 465.3 70.7 436.2 64.3C407 58 378 58 349 58C320 58 291 58 262 60.8C233 63.7 204 69.3 174.8 71.2C145.7 73 116.3 71 87.2 71.8C58 72.7 29 76.3 14.5 78.2L0 80Z" fill="#831917"></path><path d="M0 271L14.5 294.3C29 317.7 58 364.3 87.2 370.7C116.3 377 145.7 343 174.8 337.7C204 332.3 233 355.7 262 366.5C291 377.3 320 375.7 349 374.8C378 374 407 374 436.2 365C465.3 356 494.7 338 523.8 333.5C553 329 582 338 611 334.3C640 330.7 669 314.3 698 316C727 317.7 756 337.3 785.2 343.7C814.3 350 843.7 343 872.8 338.5C902 334 931 332 945.5 331L960 330L960 204L945.5 190.5C931 177 902 150 872.8 142C843.7 134 814.3 145 785.2 157.7C756 170.3 727 184.7 698 189.2C669 193.7 640 188.3 611 193.7C582 199 553 215 523.8 209.5C494.7 204 465.3 177 436.2 160.8C407 144.7 378 139.3 349 134.8C320 130.3 291 126.7 262 124.8C233 123 204 123 174.8 124.8C145.7 126.7 116.3 130.3 87.2 139.3C58 148.3 29 162.7 14.5 169.8L0 177Z" fill="#6e0707"></path><path d="M0 471L14.5 476.3C29 481.7 58 492.3 87.2 496.8C116.3 501.3 145.7 499.7 174.8 497C204 494.3 233 490.7 262 485.2C291 479.7 320 472.3 349 467.8C378 463.3 407 461.7 436.2 469C465.3 476.3 494.7 492.7 523.8 499C553 505.3 582 501.7 611 494.3C640 487 669 476 698 470.5C727 465 756 465 785.2 471.3C814.3 477.7 843.7 490.3 872.8 494C902 497.7 931 492.3 945.5 489.7L960 487L960 328L945.5 329C931 330 902 332 872.8 336.5C843.7 341 814.3 348 785.2 341.7C756 335.3 727 315.7 698 314C669 312.3 640 328.7 611 332.3C582 336 553 327 523.8 331.5C494.7 336 465.3 354 436.2 363C407 372 378 372 349 372.8C320 373.7 291 375.3 262 364.5C233 353.7 204 330.3 174.8 335.7C145.7 341 116.3 375 87.2 368.7C58 362.3 29 315.7 14.5 292.3L0 269Z" fill="#60080a"></path><path d="M0 541L14.5 541C29 541 58 541 87.2 541C116.3 541 145.7 541 174.8 541C204 541 233 541 262 541C291 541 320 541 349 541C378 541 407 541 436.2 541C465.3 541 494.7 541 523.8 541C553 541 582 541 611 541C640 541 669 541 698 541C727 541 756 541 785.2 541C814.3 541 843.7 541 872.8 541C902 541 931 541 945.5 541L960 541L960 485L945.5 487.7C931 490.3 902 495.7 872.8 492C843.7 488.3 814.3 475.7 785.2 469.3C756 463 727 463 698 468.5C669 474 640 485 611 492.3C582 499.7 553 503.3 523.8 497C494.7 490.7 465.3 474.3 436.2 467C407 459.7 378 461.3 349 465.8C320 470.3 291 477.7 262 483.2C233 488.7 204 492.3 174.8 495C145.7 497.7 116.3 499.3 87.2 494.8C58 490.3 29 479.7 14.5 474.3L0 469Z" fill="#52090c"></path></svg>