<svg id="visual" viewBox="0 0 960 540" width="960" height="540" xmlns="http://www.w3.org/2000/svg" xmlns:xlink="http://www.w3.org/1999/xlink" version="1.1"><path d="M0 71L14.5 77.3C29 83.7 58 96.3 87.2 99C116.3 101.7 145.7 94.3 174.8 89.8C204 85.3 233 83.7 262 88.2C291 92.7 320 103.3 349 99.7C378 96 407 78 436.2 68.2C465.3 58.3 494.7 56.7 523.8 55C553 53.3 582 51.7 611 57C640 62.3 669 74.7 698 76.3C727 78 756 69 785.2 65.5C814.3 62 843.7 64 872.8 65C902 66 931 66 945.5 66L960 66L960 0L945.5 0C931 0 902 0 872.8 0C843.7 0 814.3 0 785.2 0C756 0 727 0 698 0C669 0 640 0 611 0C582 0 553 0 523.8 0C494.7 0 465.3 0 436.2 0C407 0 378 0 349 0C320 0 291 0 262 0C233 0 204 0 174.8 0C145.7 0 116.3 0 87.2 0C58 0 29 0 14.5 0L0 0Z" fill="#265c8e"></path><path d="M0 109L14.5 120.7C29 132.3 58 155.7 87.2 163.8C116.3 172 145.7 165 174.8 160.5C204 156 233 154 262 154C291 154 320 156 349 156C378 156 407 154 436.2 152.2C465.3 150.3 494.7 148.7 523.8 144.2C553 139.7 582 132.3 611 128.7C640 125 669 125 698 128.7C727 132.3 756 139.7 785.2 135.2C814.3 130.7 843.7 114.3 872.8 114.3C902 114.3 931 130.7 945.5 138.8L960 147L960 64L945.5 64C931 64 902 64 872.8 63C843.7 62 814.3 60 785.2 63.5C756 67 727 76 698 74.3C669 72.7 640 60.3 611 55C582 49.7 553 51.3 523.8 53C494.7 54.7 465.3 56.3 436.2 66.2C407 76 378 94 349 97.7C320 101.3 291 90.7 262 86.2C233 81.7 204 83.3 174.8 87.8C145.7 92.3 116.3 99.7 87.2 97C58 94.3 29 81.7 14.5 75.3L0 69Z" fill="#184a77"></path><path d="M0 309L14.5 314.3C29 319.7 58 330.3 87.2 316.8C116.3 303.3 145.7 265.7 174.8 258.5C204 251.3 233 274.7 262 279.2C291 283.7 320 269.3 349 268.5C378 267.7 407 280.3 436.2 292C465.3 303.7 494.7 314.3 523.8 321.5C553 328.7 582 332.3 611 323.3C640 314.3 669 292.7 698 295.3C727 298 756 325 785.2 325C814.3 325 843.7 298 872.8 277.3C902 256.7 931 242.3 945.5 235.2L960 228L960 145L945.5 136.8C931 128.7 902 112.3 872.8 112.3C843.7 112.3 814.3 128.7 785.2 133.2C756 137.7 727 130.3 698 126.7C669 123 640 123 611 126.7C582 130.3 553 137.7 523.8 142.2C494.7 146.7 465.3 148.3 436.2 150.2C407 152 378 154 349 154C320 154 291 152 262 152C233 152 204 154 174.8 158.5C145.7 163 116.3 170 87.2 161.8C58 153.7 29 130.3 14.5 118.7L0 107Z" fill="#073860"></path><path d="M0 417L14.5 411.5C29 406 58 395 87.2 380.5C116.3 366 145.7 348 174.8 351.7C204 355.3 233 380.7 262 390.7C291 400.7 320 395.3 349 392.7C378 390 407 390 436.2 395.3C465.3 400.7 494.7 411.3 523.8 415.8C553 420.3 582 418.7 611 406.2C640 393.7 669 370.3 698 368.5C727 366.7 756 386.3 785.2 394.3C814.3 402.3 843.7 398.7 872.8 384.3C902 370 931 345 945.5 332.5L960 320L960 226L945.5 233.2C931 240.3 902 254.7 872.8 275.3C843.7 296 814.3 323 785.2 323C756 323 727 296 698 293.3C669 290.7 640 312.3 611 321.3C582 330.3 553 326.7 523.8 319.5C494.7 312.3 465.3 301.7 436.2 290C407 278.3 378 265.7 349 266.5C320 267.3 291 281.7 262 277.2C233 272.7 204 249.3 174.8 256.5C145.7 263.7 116.3 301.3 87.2 314.8C58 328.3 29 317.7 14.5 312.3L0 307Z" fill="#073153"></path><path d="M0 541L14.5 541C29 541 58 541 87.2 541C116.3 541 145.7 541 174.8 541C204 541 233 541 262 541C291 541 320 541 349 541C378 541 407 541 436.2 541C465.3 541 494.7 541 523.8 541C553 541 582 541 611 541C640 541 669 541 698 541C727 541 756 541 785.2 541C814.3 541 843.7 541 872.8 541C902 541 931 541 945.5 541L960 541L960 318L945.5 330.5C931 343 902 368 872.8 382.3C843.7 396.7 814.3 400.3 785.2 392.3C756 384.3 727 364.7 698 366.5C669 368.3 640 391.7 611 404.2C582 416.7 553 418.3 523.8 413.8C494.7 409.3 465.3 398.7 436.2 393.3C407 388 378 388 349 390.7C320 393.3 291 398.7 262 388.7C233 378.7 204 353.3 174.8 349.7C145.7 346 116.3 364 87.2 378.5C58 393 29 404 14.5 409.5L0 415Z" fill="#072a46"></path></svg>