<svg id="visual" viewBox="0 0 960 540" width="960" height="540" xmlns="http://www.w3.org/2000/svg" xmlns:xlink="http://www.w3.org/1999/xlink" version="1.1"><path d="M0 66L14.5 68.7C29 71.3 58 76.7 87.2 79.3C116.3 82 145.7 82 174.8 79.3C204 76.7 233 71.3 262 73.2C291 75 320 84 349 84C378 84 407 75 436.2 73.2C465.3 71.3 494.7 76.7 523.8 81.2C553 85.7 582 89.3 611 81.2C640 73 669 53 698 52C727 51 756 69 785.2 77.2C814.3 85.3 843.7 83.7 872.8 76.5C902 69.3 931 56.7 945.5 50.3L960 44L960 0L945.5 0C931 0 902 0 872.8 0C843.7 0 814.3 0 785.2 0C756 0 727 0 698 0C669 0 640 0 611 0C582 0 553 0 523.8 0C494.7 0 465.3 0 436.2 0C407 0 378 0 349 0C320 0 291 0 262 0C233 0 204 0 174.8 0C145.7 0 116.3 0 87.2 0C58 0 29 0 14.5 0L0 0Z" fill="#992925"></path><path d="M0 244L14.5 248.5C29 253 58 262 87.2 267.3C116.3 272.7 145.7 274.3 174.8 266.2C204 258 233 240 262 238.3C291 236.7 320 251.3 349 245.2C378 239 407 212 436.2 219.2C465.3 226.3 494.7 267.7 523.8 278.3C553 289 582 269 611 238.3C640 207.7 669 166.3 698 153.8C727 141.3 756 157.7 785.2 164.8C814.3 172 843.7 170 872.8 182.5C902 195 931 222 945.5 235.5L960 249L960 42L945.5 48.3C931 54.7 902 67.3 872.8 74.5C843.7 81.7 814.3 83.3 785.2 75.2C756 67 727 49 698 50C669 51 640 71 611 79.2C582 87.3 553 83.7 523.8 79.2C494.7 74.7 465.3 69.3 436.2 71.2C407 73 378 82 349 82C320 82 291 73 262 71.2C233 69.3 204 74.7 174.8 77.3C145.7 80 116.3 80 87.2 77.3C58 74.7 29 69.3 14.5 66.7L0 64Z" fill="#831917"></path><path d="M0 325L14.5 329.5C29 334 58 343 87.2 346.7C116.3 350.3 145.7 348.7 174.8 355C204 361.3 233 375.7 262 377.3C291 379 320 368 349 362.5C378 357 407 357 436.2 364.3C465.3 371.7 494.7 386.3 523.8 383.7C553 381 582 361 611 354.7C640 348.3 669 355.7 698 353.8C727 352 756 341 785.2 333.8C814.3 326.7 843.7 323.3 872.8 339.7C902 356 931 392 945.5 410L960 428L960 247L945.5 233.5C931 220 902 193 872.8 180.5C843.7 168 814.3 170 785.2 162.8C756 155.7 727 139.3 698 151.8C669 164.3 640 205.7 611 236.3C582 267 553 287 523.8 276.3C494.7 265.7 465.3 224.3 436.2 217.2C407 210 378 237 349 243.2C320 249.3 291 234.7 262 236.3C233 238 204 256 174.8 264.2C145.7 272.3 116.3 270.7 87.2 265.3C58 260 29 251 14.5 246.5L0 242Z" fill="#6e0707"></path><path d="M0 417L14.5 424.2C29 431.3 58 445.7 87.2 443.8C116.3 442 145.7 424 174.8 421.3C204 418.7 233 431.3 262 435.8C291 440.3 320 436.7 349 432.2C378 427.7 407 422.3 436.2 423.2C465.3 424 494.7 431 523.8 433.7C553 436.3 582 434.7 611 431.2C640 427.7 669 422.3 698 420.5C727 418.7 756 420.3 785.2 422.2C814.3 424 843.7 426 872.8 436C902 446 931 464 945.5 473L960 482L960 426L945.5 408C931 390 902 354 872.8 337.7C843.7 321.3 814.3 324.7 785.2 331.8C756 339 727 350 698 351.8C669 353.7 640 346.3 611 352.7C582 359 553 379 523.8 381.7C494.7 384.3 465.3 369.7 436.2 362.3C407 355 378 355 349 360.5C320 366 291 377 262 375.3C233 373.7 204 359.3 174.8 353C145.7 346.7 116.3 348.3 87.2 344.7C58 341 29 332 14.5 327.5L0 323Z" fill="#60080a"></path><path d="M0 541L14.5 541C29 541 58 541 87.2 541C116.3 541 145.7 541 174.8 541C204 541 233 541 262 541C291 541 320 541 349 541C378 541 407 541 436.2 541C465.3 541 494.7 541 523.8 541C553 541 582 541 611 541C640 541 669 541 698 541C727 541 756 541 785.2 541C814.3 541 843.7 541 872.8 541C902 541 931 541 945.5 541L960 541L960 480L945.5 471C931 462 902 444 872.8 434C843.7 424 814.3 422 785.2 420.2C756 418.3 727 416.7 698 418.5C669 420.3 640 425.7 611 429.2C582 432.7 553 434.3 523.8 431.7C494.7 429 465.3 422 436.2 421.2C407 420.3 378 425.7 349 430.2C320 434.7 291 438.3 262 433.8C233 429.3 204 416.7 174.8 419.3C145.7 422 116.3 440 87.2 441.8C58 443.7 29 429.3 14.5 422.2L0 415Z" fill="#52090c"></path></svg>