<svg id="visual" viewBox="0 0 900 600" width="900" height="600" xmlns="http://www.w3.org/2000/svg" xmlns:xlink="http://www.w3.org/1999/xlink" version="1.1"><rect x="0" y="0" width="900" height="600" fill="#201b56"></rect><path d="M0 241L16.7 244.5C33.3 248 66.7 255 100 253.5C133.3 252 166.7 242 200 238C233.3 234 266.7 236 300 240.5C333.3 245 366.7 252 400 256.5C433.3 261 466.7 263 500 263.3C533.3 263.7 566.7 262.3 600 256C633.3 249.7 666.7 238.3 700 237.8C733.3 237.3 766.7 247.7 800 250.8C833.3 254 866.7 250 883.3 248L900 246L900 601L883.3 601C866.7 601 833.3 601 800 601C766.7 601 733.3 601 700 601C666.7 601 633.3 601 600 601C566.7 601 533.3 601 500 601C466.7 601 433.3 601 400 601C366.7 601 333.3 601 300 601C266.7 601 233.3 601 200 601C166.7 601 133.3 601 100 601C66.7 601 33.3 601 16.7 601L0 601Z" fill="#c9dae6"></path><path d="M0 282L16.7 280.2C33.3 278.3 66.7 274.7 100 279.3C133.3 284 166.7 297 200 296.5C233.3 296 266.7 282 300 279C333.3 276 366.7 284 400 288.3C433.3 292.7 466.7 293.3 500 291C533.3 288.7 566.7 283.3 600 281.5C633.3 279.7 666.7 281.3 700 283.8C733.3 286.3 766.7 289.7 800 294.2C833.3 298.7 866.7 304.3 883.3 307.2L900 310L900 601L883.3 601C866.7 601 833.3 601 800 601C766.7 601 733.3 601 700 601C666.7 601 633.3 601 600 601C566.7 601 533.3 601 500 601C466.7 601 433.3 601 400 601C366.7 601 333.3 601 300 601C266.7 601 233.3 601 200 601C166.7 601 133.3 601 100 601C66.7 601 33.3 601 16.7 601L0 601Z" fill="#a0c7e9"></path><path d="M0 337L16.7 337.5C33.3 338 66.7 339 100 336.5C133.3 334 166.7 328 200 324C233.3 320 266.7 318 300 320.3C333.3 322.7 366.7 329.3 400 334.5C433.3 339.7 466.7 343.3 500 338.8C533.3 334.3 566.7 321.7 600 316.3C633.3 311 666.7 313 700 319.8C733.3 326.7 766.7 338.3 800 344.2C833.3 350 866.7 350 883.3 350L900 350L900 601L883.3 601C866.7 601 833.3 601 800 601C766.7 601 733.3 601 700 601C666.7 601 633.3 601 600 601C566.7 601 533.3 601 500 601C466.7 601 433.3 601 400 601C366.7 601 333.3 601 300 601C266.7 601 233.3 601 200 601C166.7 601 133.3 601 100 601C66.7 601 33.3 601 16.7 601L0 601Z" fill="#79b3ed"></path><path d="M0 357L16.7 360.3C33.3 363.7 66.7 370.3 100 375C133.3 379.7 166.7 382.3 200 383.8C233.3 385.3 266.7 385.7 300 383.7C333.3 381.7 366.7 377.3 400 378.5C433.3 379.7 466.7 386.3 500 386.3C533.3 386.3 566.7 379.7 600 376.2C633.3 372.7 666.7 372.3 700 376C733.3 379.7 766.7 387.3 800 388.3C833.3 389.3 866.7 383.7 883.3 380.8L900 378L900 601L883.3 601C866.7 601 833.3 601 800 601C766.7 601 733.3 601 700 601C666.7 601 633.3 601 600 601C566.7 601 533.3 601 500 601C466.7 601 433.3 601 400 601C366.7 601 333.3 601 300 601C266.7 601 233.3 601 200 601C166.7 601 133.3 601 100 601C66.7 601 33.3 601 16.7 601L0 601Z" fill="#569df0"></path><path d="M0 402L16.7 405.7C33.3 409.3 66.7 416.7 100 421.7C133.3 426.7 166.7 429.3 200 428.5C233.3 427.7 266.7 423.3 300 419.5C333.3 415.7 366.7 412.3 400 414.2C433.3 416 466.7 423 500 425C533.3 427 566.7 424 600 422C633.3 420 666.7 419 700 419C733.3 419 766.7 420 800 421.7C833.3 423.3 866.7 425.7 883.3 426.8L900 428L900 601L883.3 601C866.7 601 833.3 601 800 601C766.7 601 733.3 601 700 601C666.7 601 633.3 601 600 601C566.7 601 533.3 601 500 601C466.7 601 433.3 601 400 601C366.7 601 333.3 601 300 601C266.7 601 233.3 601 200 601C166.7 601 133.3 601 100 601C66.7 601 33.3 601 16.7 601L0 601Z" fill="#3b86f0"></path><path d="M0 463L16.7 463.7C33.3 464.3 66.7 465.7 100 465.5C133.3 465.3 166.7 463.7 200 463.8C233.3 464 266.7 466 300 465.2C333.3 464.3 366.7 460.7 400 459.7C433.3 458.7 466.7 460.3 500 459.2C533.3 458 566.7 454 600 453.2C633.3 452.3 666.7 454.7 700 454C733.3 453.3 766.7 449.7 800 449.3C833.3 449 866.7 452 883.3 453.5L900 455L900 601L883.3 601C866.7 601 833.3 601 800 601C766.7 601 733.3 601 700 601C666.7 601 633.3 601 600 601C566.7 601 533.3 601 500 601C466.7 601 433.3 601 400 601C366.7 601 333.3 601 300 601C266.7 601 233.3 601 200 601C166.7 601 133.3 601 100 601C66.7 601 33.3 601 16.7 601L0 601Z" fill="#336dec"></path><path d="M0 501L16.7 502C33.3 503 66.7 505 100 505.8C133.3 506.7 166.7 506.3 200 509.5C233.3 512.7 266.7 519.3 300 517.2C333.3 515 366.7 504 400 498.3C433.3 492.7 466.7 492.3 500 492.3C533.3 492.3 566.7 492.7 600 497.7C633.3 502.7 666.7 512.3 700 513.3C733.3 514.3 766.7 506.7 800 502.3C833.3 498 866.7 497 883.3 496.5L900 496L900 601L883.3 601C866.7 601 833.3 601 800 601C766.7 601 733.3 601 700 601C666.7 601 633.3 601 600 601C566.7 601 533.3 601 500 601C466.7 601 433.3 601 400 601C366.7 601 333.3 601 300 601C266.7 601 233.3 601 200 601C166.7 601 133.3 601 100 601C66.7 601 33.3 601 16.7 601L0 601Z" fill="#424fe2"></path><path d="M0 538L16.7 539.2C33.3 540.3 66.7 542.7 100 548C133.3 553.3 166.7 561.7 200 561C233.3 560.3 266.7 550.7 300 546.8C333.3 543 366.7 545 400 546.7C433.3 548.3 466.7 549.7 500 550.3C533.3 551 566.7 551 600 553.2C633.3 555.3 666.7 559.7 700 561.7C733.3 563.7 766.7 563.3 800 563.3C833.3 563.3 866.7 563.7 883.3 563.8L900 564L900 601L883.3 601C866.7 601 833.3 601 800 601C766.7 601 733.3 601 700 601C666.7 601 633.3 601 600 601C566.7 601 533.3 601 500 601C466.7 601 433.3 601 400 601C366.7 601 333.3 601 300 601C266.7 601 233.3 601 200 601C166.7 601 133.3 601 100 601C66.7 601 33.3 601 16.7 601L0 601Z" fill="#5925d2"></path></svg>